<mxfile host="app.diagrams.net">
  <diagram name="Target Architecture">
    <mxGraphModel dx="1422" dy="794" grid="1" gridSize="10" guides="1" tooltips="1" connect="1" arrows="1" fold="1" page="1" pageScale="1" pageWidth="827" pageHeight="1169">
      <root>
        <mxCell id="0"/>
        <mxCell id="1" parent="0"/>
        
        <!-- Azure Cloud Container -->
        <mxCell id="2" value="Microsoft Azure Cloud" style="rounded=1;whiteSpace=wrap;html=1;fillColor=#e3f2fd;strokeColor=#1976d2;dashed=1;" vertex="1" parent="1">
          <mxGeometry x="50" y="50" width="700" height="300" as="geometry"/>
        </mxCell>
        
        <!-- Region 1 -->
        <mxCell id="3" value="Region 1 Primary ADFS Farm" style="rounded=1;whiteSpace=wrap;html=1;fillColor=#f3e5f5;strokeColor=#8e24aa;" vertex="1" parent="1">
          <mxGeometry x="80" y="100" width="150" height="80" as="geometry"/>
        </mxCell>
        
        <!-- Region 2 -->
        <mxCell id="4" value="Region 2 Secondary ADFS Farm" style="rounded=1;whiteSpace=wrap;html=1;fillColor=#fff3e0;strokeColor=#ff8f00;" vertex="1" parent="1">
          <mxGeometry x="280" y="100" width="150" height="80" as="geometry"/>
        </mxCell>
        
        <!-- On-Premises -->
        <mxCell id="5" value="On-Premises Active Directory" style="rounded=1;whiteSpace=wrap;html=1;fillColor=#e8f5e8;strokeColor=#388e3c;" vertex="1" parent="1">
          <mxGeometry x="480" y="100" width="150" height="80" as="geometry"/>
        </mxCell>
        
        <!-- Failover Site -->
        <mxCell id="6" value="Failover Site" style="rounded=1;whiteSpace=wrap;html=1;fillColor=#fce4ec;strokeColor=#c2185b;" vertex="1" parent="1">
          <mxGeometry x="580" y="220" width="120" height="60" as="geometry"/>
        </mxCell>
        
        <!-- Load Balancer -->
        <mxCell id="7" value="Load Balancer (10K Concurrent Users)" style="rounded=1;whiteSpace=wrap;html=1;fillColor=#e0f2f1;strokeColor=#00695c;" vertex="1" parent="1">
          <mxGeometry x="200" y="400" width="200" height="60" as="geometry"/>
        </mxCell>
        
        <!-- Directory Sync -->
        <mxCell id="8" value="Directory Sync Service" style="rounded=1;whiteSpace=wrap;html=1;fillColor=#f1f8e9;strokeColor=#558b2f;" vertex="1" parent="1">
          <mxGeometry x="450" y="400" width="150" height="60" as="geometry"/>
        </mxCell>
        
        <!-- Network Security Groups -->
        <mxCell id="9" value="Network Security Groups" style="rounded=1;whiteSpace=wrap;html=1;fillColor=#f9fbe7;strokeColor=#827717;" vertex="1" parent="1">
          <mxGeometry x="150" y="500" width="300" height="100" as="geometry"/>
        </mxCell>
        
        <!-- ADFS Subnet -->
        <mxCell id="10" value="ADFS Subnet" style="rounded=1;whiteSpace=wrap;html=1;fillColor=#ffebee;strokeColor=#d32f2f;" vertex="1" parent="1">
          <mxGeometry x="170" y="520" width="100" height="30" as="geometry"/>
        </mxCell>
        
        <!-- WAP Subnet -->
        <mxCell id="11" value="WAP Subnet" style="rounded=1;whiteSpace=wrap;html=1;fillColor=#fff8e1;strokeColor=#fbc02d;" vertex="1" parent="1">
          <mxGeometry x="320" y="520" width="100" height="30" as="geometry"/>
        </mxCell>
        
        <!-- Application Layer -->
        <mxCell id="12" value="Application Layer" style="rounded=1;whiteSpace=wrap;html=1;fillColor=#fafafa;strokeColor=#616161;" vertex="1" parent="1">
          <mxGeometry x="150" y="650" width="300" height="100" as="geometry"/>
        </mxCell>
        
        <!-- Modern Apps -->
        <mxCell id="13" value="Modern Apps (64 Total)" style="rounded=1;whiteSpace=wrap;html=1;fillColor=#e1f5fe;strokeColor=#01579b;" vertex="1" parent="1">
          <mxGeometry x="170" y="670" width="120" height="30" as="geometry"/>
        </mxCell>
        
        <!-- Converted Apps -->
        <mxCell id="14" value="Converted Legacy Apps" style="rounded=1;whiteSpace=wrap;html=1;fillColor=#f3e5f5;strokeColor=#8e24aa;" vertex="1" parent="1">
          <mxGeometry x="310" y="670" width="120" height="30" as="geometry"/>
        </mxCell>
        
        <!-- Arrows -->
        <mxCell id="15" style="edgeStyle=orthogonalEdgeStyle;rounded=0;orthogonalLoop=1;jettySize=auto;html=1;" edge="1" parent="1" source="3" target="7"/>
        <mxCell id="16" style="edgeStyle=orthogonalEdgeStyle;rounded=0;orthogonalLoop=1;jettySize=auto;html=1;" edge="1" parent="1" source="4" target="7"/>
        <mxCell id="17" style="edgeStyle=orthogonalEdgeStyle;rounded=0;orthogonalLoop=1;jettySize=auto;html=1;" edge="1" parent="1" source="5" target="8"/>
        <mxCell id="18" style="edgeStyle=orthogonalEdgeStyle;rounded=0;orthogonalLoop=1;jettySize=auto;html=1;" edge="1" parent="1" source="7" target="9"/>
        <mxCell id="19" style="edgeStyle=orthogonalEdgeStyle;rounded=0;orthogonalLoop=1;jettySize=auto;html=1;" edge="1" parent="1" source="8" target="9"/>
        <mxCell id="20" style="edgeStyle=orthogonalEdgeStyle;rounded=0;orthogonalLoop=1;jettySize=auto;html=1;" edge="1" parent="1" source="9" target="12"/>
      </root>
    </mxGraphModel>
  </diagram>
</mxfile>